<svg xmlns="http://www.w3.org/2000/svg" xmlns:xlink="http://www.w3.org/1999/xlink" width="500" zoomAndPan="magnify" viewBox="0 0 375 374.999991" height="500" preserveAspectRatio="xMidYMid meet" version="1.0"><defs><g/></defs><g fill="#c32d2d" fill-opacity="1"><g transform="translate(105.086673, 258.743142)"><g><path d="M 112.609375 -49.921875 C 112.609375 -45.898438 111.304688 -41.757812 108.703125 -37.5 C 106.097656 -33.238281 102.6875 -29.113281 98.46875 -25.125 C 94.25 -21.144531 89.515625 -17.378906 84.265625 -13.828125 C 79.023438 -10.285156 73.742188 -7.15625 68.421875 -4.4375 C 63.097656 -1.71875 57.992188 0.445312 53.109375 2.0625 C 48.222656 3.6875 44.082031 4.535156 40.6875 4.609375 C 37.457031 4.765625 33.988281 4.488281 30.28125 3.78125 C 26.570312 3.070312 23.039062 2.1875 19.6875 1.125 C 16.34375 0.0625 13.347656 -1.078125 10.703125 -2.296875 C 8.066406 -3.523438 6.273438 -4.613281 5.328125 -5.5625 C 4.773438 -6.1875 4.320312 -6.875 3.96875 -7.625 C 3.613281 -8.375 3.4375 -9.203125 3.4375 -10.109375 C 3.4375 -11.015625 3.691406 -11.960938 4.203125 -12.953125 C 4.710938 -13.941406 5.5625 -14.945312 6.75 -15.96875 C 7.84375 -16.832031 9.21875 -17.9375 10.875 -19.28125 C 12.300781 -20.382812 14.117188 -21.820312 16.328125 -23.59375 C 18.535156 -25.375 21.253906 -27.523438 24.484375 -30.046875 C 23.304688 -28.859375 22.554688 -27.75 22.234375 -26.71875 C 21.921875 -25.695312 21.804688 -24.753906 21.890625 -23.890625 C 21.960938 -22.941406 22.273438 -22.078125 22.828125 -21.296875 C 23.617188 -20.265625 25 -19.117188 26.96875 -17.859375 C 28.9375 -16.597656 31.320312 -15.4375 34.125 -14.375 C 36.925781 -13.3125 40.082031 -12.421875 43.59375 -11.703125 C 47.101562 -10.992188 50.75 -10.640625 54.53125 -10.640625 C 59.1875 -10.640625 63.800781 -11.09375 68.375 -12 C 72.945312 -12.90625 77.066406 -14.421875 80.734375 -16.546875 C 84.398438 -18.679688 87.351562 -21.503906 89.59375 -25.015625 C 91.84375 -28.523438 92.96875 -32.882812 92.96875 -38.09375 C 92.96875 -42.894531 91.84375 -47.128906 89.59375 -50.796875 C 87.351562 -54.460938 84.414062 -57.753906 80.78125 -60.671875 C 77.15625 -63.597656 72.992188 -66.257812 68.296875 -68.65625 C 63.609375 -71.0625 58.835938 -73.445312 53.984375 -75.8125 C 49.140625 -78.1875 44.367188 -80.59375 39.671875 -83.03125 C 34.984375 -85.476562 30.828125 -88.21875 27.203125 -91.25 C 23.578125 -94.289062 20.640625 -97.722656 18.390625 -101.546875 C 16.140625 -105.367188 15.015625 -109.804688 15.015625 -114.859375 C 15.015625 -119.742188 16.21875 -124.53125 18.625 -129.21875 C 21.03125 -133.914062 24.203125 -138.332031 28.140625 -142.46875 C 32.085938 -146.613281 36.601562 -150.457031 41.6875 -154 C 46.78125 -157.550781 52.003906 -160.609375 57.359375 -163.171875 C 62.722656 -165.734375 67.988281 -167.742188 73.15625 -169.203125 C 78.320312 -170.660156 82.992188 -171.429688 87.171875 -171.515625 C 91.191406 -171.597656 95.054688 -171.421875 98.765625 -170.984375 C 102.472656 -170.546875 105.585938 -169.894531 108.109375 -169.03125 C 110.640625 -168.164062 112.375 -167.082031 113.3125 -165.78125 C 114.257812 -164.476562 114.023438 -163 112.609375 -161.34375 C 111.421875 -160 109.960938 -158.578125 108.234375 -157.078125 C 106.648438 -155.742188 104.710938 -154.25 102.421875 -152.59375 C 100.140625 -150.9375 97.34375 -149.160156 94.03125 -147.265625 C 94.664062 -148.210938 95.019531 -149.0625 95.09375 -149.8125 C 95.175781 -150.5625 95.140625 -151.171875 94.984375 -151.640625 C 94.742188 -152.191406 94.425781 -152.664062 94.03125 -153.0625 C 93.476562 -153.53125 92.507812 -154.039062 91.125 -154.59375 C 89.75 -155.144531 88.035156 -155.695312 85.984375 -156.25 C 83.941406 -156.800781 81.617188 -157.253906 79.015625 -157.609375 C 76.410156 -157.972656 73.648438 -158.15625 70.734375 -158.15625 C 66.003906 -158.15625 61.453125 -157.582031 57.078125 -156.4375 C 52.703125 -155.289062 48.835938 -153.535156 45.484375 -151.171875 C 42.128906 -148.804688 39.445312 -145.804688 37.4375 -142.171875 C 35.425781 -138.546875 34.421875 -134.289062 34.421875 -129.40625 C 34.421875 -124.039062 35.539062 -119.347656 37.78125 -115.328125 C 40.03125 -111.304688 42.988281 -107.738281 46.65625 -104.625 C 50.332031 -101.507812 54.515625 -98.6875 59.203125 -96.15625 C 63.890625 -93.632812 68.660156 -91.210938 73.515625 -88.890625 C 78.367188 -86.566406 83.140625 -84.179688 87.828125 -81.734375 C 92.515625 -79.285156 96.691406 -76.5625 100.359375 -73.5625 C 104.023438 -70.570312 106.984375 -67.164062 109.234375 -63.34375 C 111.484375 -59.519531 112.609375 -55.046875 112.609375 -49.921875 Z M 112.609375 -49.921875 "/></g></g></g><g fill="#f5f3f5" fill-opacity="1"><g transform="translate(131.625363, 265.968117)"><g><path d="M 47.125 -12.28125 C 42.945312 -9.914062 38.945312 -7.945312 35.125 -6.375 C 31.3125 -4.800781 27.75 -3.539062 24.4375 -2.59375 C 21.132812 -1.65625 18.164062 -0.988281 15.53125 -0.59375 C 12.894531 -0.195312 10.628906 0 8.734375 0 L -8.96875 0 L 3.890625 -7.203125 C 5.234375 -8.929688 6.535156 -10.660156 7.796875 -12.390625 C 9.054688 -14.128906 10.117188 -15.75 10.984375 -17.25 C 12.003906 -18.894531 12.945312 -20.546875 13.8125 -22.203125 C 16.257812 -27.160156 19.882812 -35.191406 24.6875 -46.296875 C 26.65625 -51.023438 28.992188 -56.65625 31.703125 -63.1875 C 34.421875 -69.726562 37.550781 -77.328125 41.09375 -85.984375 C 44.644531 -94.648438 48.582031 -104.492188 52.90625 -115.515625 C 57.238281 -126.535156 62.082031 -138.894531 67.4375 -152.59375 L 88 -171.5 L 134.296875 -14.53125 C 137.597656 -13.664062 140.765625 -13.113281 143.796875 -12.875 C 146.828125 -12.632812 149.679688 -12.515625 152.359375 -12.515625 C 153.773438 -12.515625 155.070312 -12.535156 156.25 -12.578125 C 157.4375 -12.617188 158.460938 -12.675781 159.328125 -12.75 C 160.273438 -12.832031 161.179688 -12.953125 162.046875 -13.109375 C 157.484375 -10.898438 153.507812 -8.988281 150.125 -7.375 C 146.738281 -5.757812 143.722656 -4.398438 141.078125 -3.296875 C 138.441406 -2.203125 136 -1.378906 133.75 -0.828125 C 131.507812 -0.273438 129.25 0 126.96875 0 L 108.078125 0 L 114.21875 -3.890625 L 95.3125 -66.5 C 93.03125 -65.863281 90.390625 -65.25 87.390625 -64.65625 C 84.398438 -64.070312 80.835938 -63.539062 76.703125 -63.0625 C 72.578125 -62.59375 67.773438 -62.160156 62.296875 -61.765625 C 56.828125 -61.378906 50.507812 -61.023438 43.34375 -60.703125 C 40.039062 -53.703125 37.007812 -47.484375 34.25 -42.046875 C 31.5 -36.609375 29.019531 -31.878906 26.8125 -27.859375 C 24.601562 -23.847656 22.648438 -20.460938 20.953125 -17.703125 C 19.265625 -14.953125 17.832031 -12.753906 16.65625 -11.109375 C 17.988281 -10.867188 19.484375 -10.6875 21.140625 -10.5625 C 22.796875 -10.445312 24.453125 -10.390625 26.109375 -10.390625 C 28.617188 -10.390625 31.113281 -10.488281 33.59375 -10.6875 C 36.082031 -10.882812 38.347656 -11.101562 40.390625 -11.34375 C 42.753906 -11.65625 45 -11.96875 47.125 -12.28125 Z M 63.65625 -74.765625 C 74.289062 -74.765625 83.9375 -75 92.59375 -75.46875 L 74.53125 -135.46875 C 69.644531 -122.945312 65.175781 -111.765625 61.125 -101.921875 C 57.070312 -92.085938 53.234375 -83.035156 49.609375 -74.765625 Z M 63.65625 -74.765625 "/></g></g></g><g fill="#004aad" fill-opacity="1"><g transform="translate(55.650975, 288.645713)"><g><path d="M 10.171875 -4.5 C 10.171875 -4.144531 10.050781 -3.773438 9.8125 -3.390625 C 9.582031 -3.003906 9.273438 -2.628906 8.890625 -2.265625 C 8.515625 -1.910156 8.085938 -1.570312 7.609375 -1.25 C 7.140625 -0.925781 6.660156 -0.640625 6.171875 -0.390625 C 5.691406 -0.148438 5.234375 0.0390625 4.796875 0.1875 C 4.359375 0.332031 3.984375 0.410156 3.671875 0.421875 C 3.378906 0.429688 3.066406 0.40625 2.734375 0.34375 C 2.398438 0.28125 2.082031 0.195312 1.78125 0.09375 C 1.476562 0 1.207031 -0.0976562 0.96875 -0.203125 C 0.726562 -0.316406 0.566406 -0.414062 0.484375 -0.5 C 0.429688 -0.5625 0.390625 -0.625 0.359375 -0.6875 C 0.328125 -0.757812 0.3125 -0.832031 0.3125 -0.90625 C 0.3125 -0.988281 0.332031 -1.070312 0.375 -1.15625 C 0.425781 -1.25 0.503906 -1.34375 0.609375 -1.4375 C 0.710938 -1.519531 0.835938 -1.617188 0.984375 -1.734375 C 1.109375 -1.835938 1.269531 -1.96875 1.46875 -2.125 C 1.664062 -2.289062 1.914062 -2.488281 2.21875 -2.71875 C 2.101562 -2.601562 2.03125 -2.5 2 -2.40625 C 1.976562 -2.320312 1.96875 -2.238281 1.96875 -2.15625 C 1.976562 -2.070312 2.007812 -1.992188 2.0625 -1.921875 C 2.132812 -1.828125 2.257812 -1.722656 2.4375 -1.609375 C 2.613281 -1.492188 2.828125 -1.390625 3.078125 -1.296875 C 3.328125 -1.203125 3.609375 -1.125 3.921875 -1.0625 C 4.242188 -1 4.578125 -0.96875 4.921875 -0.96875 C 5.335938 -0.96875 5.753906 -1.003906 6.171875 -1.078125 C 6.585938 -1.160156 6.957031 -1.296875 7.28125 -1.484375 C 7.613281 -1.679688 7.878906 -1.9375 8.078125 -2.25 C 8.285156 -2.570312 8.390625 -2.96875 8.390625 -3.4375 C 8.390625 -3.875 8.285156 -4.253906 8.078125 -4.578125 C 7.878906 -4.910156 7.613281 -5.207031 7.28125 -5.46875 C 6.957031 -5.738281 6.582031 -5.984375 6.15625 -6.203125 C 5.738281 -6.421875 5.3125 -6.632812 4.875 -6.84375 C 4.4375 -7.0625 4.003906 -7.28125 3.578125 -7.5 C 3.160156 -7.71875 2.785156 -7.960938 2.453125 -8.234375 C 2.128906 -8.515625 1.863281 -8.828125 1.65625 -9.171875 C 1.457031 -9.515625 1.359375 -9.914062 1.359375 -10.375 C 1.359375 -10.8125 1.46875 -11.242188 1.6875 -11.671875 C 1.90625 -12.097656 2.191406 -12.492188 2.546875 -12.859375 C 2.898438 -13.234375 3.304688 -13.582031 3.765625 -13.90625 C 4.222656 -14.226562 4.691406 -14.503906 5.171875 -14.734375 C 5.660156 -14.960938 6.140625 -15.144531 6.609375 -15.28125 C 7.078125 -15.414062 7.5 -15.484375 7.875 -15.484375 C 8.238281 -15.492188 8.585938 -15.476562 8.921875 -15.4375 C 9.253906 -15.394531 9.535156 -15.332031 9.765625 -15.25 C 9.992188 -15.175781 10.148438 -15.082031 10.234375 -14.96875 C 10.316406 -14.851562 10.296875 -14.71875 10.171875 -14.5625 C 10.066406 -14.445312 9.929688 -14.320312 9.765625 -14.1875 C 9.628906 -14.0625 9.457031 -13.921875 9.25 -13.765625 C 9.039062 -13.617188 8.785156 -13.460938 8.484375 -13.296875 C 8.546875 -13.378906 8.578125 -13.453125 8.578125 -13.515625 C 8.585938 -13.585938 8.585938 -13.644531 8.578125 -13.6875 C 8.554688 -13.738281 8.523438 -13.785156 8.484375 -13.828125 C 8.441406 -13.867188 8.359375 -13.910156 8.234375 -13.953125 C 8.109375 -14.003906 7.953125 -14.054688 7.765625 -14.109375 C 7.578125 -14.160156 7.363281 -14.203125 7.125 -14.234375 C 6.894531 -14.265625 6.648438 -14.28125 6.390625 -14.28125 C 5.960938 -14.28125 5.550781 -14.226562 5.15625 -14.125 C 4.757812 -14.019531 4.410156 -13.859375 4.109375 -13.640625 C 3.804688 -13.429688 3.5625 -13.160156 3.375 -12.828125 C 3.195312 -12.503906 3.109375 -12.125 3.109375 -11.6875 C 3.109375 -11.195312 3.207031 -10.769531 3.40625 -10.40625 C 3.613281 -10.050781 3.878906 -9.734375 4.203125 -9.453125 C 4.535156 -9.171875 4.914062 -8.914062 5.34375 -8.6875 C 5.769531 -8.457031 6.203125 -8.238281 6.640625 -8.03125 C 7.078125 -7.820312 7.503906 -7.601562 7.921875 -7.375 C 8.347656 -7.15625 8.726562 -6.910156 9.0625 -6.640625 C 9.394531 -6.367188 9.660156 -6.0625 9.859375 -5.71875 C 10.066406 -5.375 10.171875 -4.96875 10.171875 -4.5 Z M 10.171875 -4.5 "/></g></g></g><g fill="#004aad" fill-opacity="1"><g transform="translate(68.288433, 288.645713)"><g><path d="M 6.078125 -15.421875 C 5.796875 -15.222656 5.476562 -15.015625 5.125 -14.796875 C 4.78125 -14.578125 4.453125 -14.398438 4.140625 -14.265625 C 4.109375 -13.347656 4.082031 -12.515625 4.0625 -11.765625 C 4.039062 -11.023438 4.019531 -10.351562 4 -9.75 C 3.988281 -9.144531 3.976562 -8.609375 3.96875 -8.140625 C 3.96875 -7.679688 3.960938 -7.28125 3.953125 -6.9375 C 3.941406 -6.125 3.9375 -5.503906 3.9375 -5.078125 C 3.925781 -4.566406 4 -4.070312 4.15625 -3.59375 C 4.3125 -3.125 4.566406 -2.695312 4.921875 -2.3125 C 5.273438 -1.9375 5.734375 -1.632812 6.296875 -1.40625 C 6.867188 -1.175781 7.5625 -1.0625 8.375 -1.0625 C 8.8125 -1.082031 9.269531 -1.148438 9.75 -1.265625 C 10.15625 -1.359375 10.601562 -1.503906 11.09375 -1.703125 C 11.582031 -1.910156 12.066406 -2.203125 12.546875 -2.578125 L 12.546875 -14.125 C 12.441406 -14.144531 12.332031 -14.15625 12.21875 -14.15625 C 12.113281 -14.15625 12.015625 -14.15625 11.921875 -14.15625 C 11.722656 -14.15625 11.523438 -14.148438 11.328125 -14.140625 C 11.128906 -14.128906 10.945312 -14.113281 10.78125 -14.09375 C 11.125 -14.382812 11.421875 -14.609375 11.671875 -14.765625 C 11.929688 -14.921875 12.15625 -15.039062 12.34375 -15.125 C 12.5625 -15.207031 12.75 -15.257812 12.90625 -15.28125 C 13.039062 -15.28125 13.207031 -15.28125 13.40625 -15.28125 C 13.613281 -15.28125 13.832031 -15.285156 14.0625 -15.296875 C 14.300781 -15.304688 14.539062 -15.316406 14.78125 -15.328125 C 15.019531 -15.335938 15.238281 -15.347656 15.4375 -15.359375 C 15.644531 -15.367188 15.820312 -15.378906 15.96875 -15.390625 C 16.113281 -15.398438 16.207031 -15.410156 16.25 -15.421875 C 16.007812 -15.242188 15.734375 -15.054688 15.421875 -14.859375 C 15.109375 -14.660156 14.8125 -14.5 14.53125 -14.375 L 14.53125 -3.359375 C 14.519531 -3.015625 14.5 -2.691406 14.46875 -2.390625 C 14.425781 -2.140625 14.375 -1.890625 14.3125 -1.640625 C 14.257812 -1.390625 14.171875 -1.21875 14.046875 -1.125 C 14.441406 -1.070312 14.789062 -1.035156 15.09375 -1.015625 C 15.40625 -1.003906 15.675781 -1 15.90625 -1 C 16.3125 -1 16.601562 -1.015625 16.78125 -1.046875 C 16.957031 -1.078125 17.054688 -1.097656 17.078125 -1.109375 C 16.742188 -0.921875 16.4375 -0.753906 16.15625 -0.609375 C 15.882812 -0.472656 15.625 -0.359375 15.375 -0.265625 C 15.125 -0.179688 14.882812 -0.113281 14.65625 -0.0625 C 14.425781 -0.0195312 14.191406 0 13.953125 0 L 11.875 0 C 12.039062 -0.0507812 12.164062 -0.171875 12.25 -0.359375 C 12.34375 -0.554688 12.410156 -0.757812 12.453125 -0.96875 C 12.503906 -1.207031 12.535156 -1.46875 12.546875 -1.75 L 12.546875 -2.25 C 11.785156 -1.632812 11.0625 -1.164062 10.375 -0.84375 C 9.695312 -0.519531 9.09375 -0.28125 8.5625 -0.125 C 7.9375 0.0507812 7.347656 0.148438 6.796875 0.171875 C 5.898438 0.171875 5.144531 0.0507812 4.53125 -0.1875 C 3.925781 -0.425781 3.441406 -0.757812 3.078125 -1.1875 C 2.710938 -1.613281 2.453125 -2.125 2.296875 -2.71875 C 2.148438 -3.320312 2.085938 -3.984375 2.109375 -4.703125 C 2.097656 -5.296875 2.097656 -6.039062 2.109375 -6.9375 C 2.117188 -7.695312 2.128906 -8.671875 2.140625 -9.859375 C 2.160156 -11.046875 2.191406 -12.476562 2.234375 -14.15625 L 1.75 -14.15625 C 1.550781 -14.15625 1.351562 -14.148438 1.15625 -14.140625 C 0.957031 -14.128906 0.773438 -14.113281 0.609375 -14.09375 C 0.941406 -14.382812 1.238281 -14.609375 1.5 -14.765625 C 1.757812 -14.921875 1.984375 -15.039062 2.171875 -15.125 C 2.378906 -15.207031 2.566406 -15.257812 2.734375 -15.28125 C 2.867188 -15.28125 3.039062 -15.28125 3.25 -15.28125 C 3.457031 -15.28125 3.675781 -15.285156 3.90625 -15.296875 C 4.132812 -15.304688 4.367188 -15.316406 4.609375 -15.328125 C 4.847656 -15.335938 5.066406 -15.347656 5.265625 -15.359375 C 5.472656 -15.367188 5.644531 -15.378906 5.78125 -15.390625 C 5.925781 -15.398438 6.023438 -15.410156 6.078125 -15.421875 Z M 17.078125 -1.109375 L 17.078125 -1.125 L 17.09375 -1.125 C 17.09375 -1.125 17.097656 -1.125 17.109375 -1.125 Z M 17.078125 -1.109375 "/></g></g></g><g fill="#004aad" fill-opacity="1"><g transform="translate(86.894522, 288.645713)"><g><path d="M 21.5625 -1.265625 C 21.394531 -1.128906 21.15625 -0.96875 20.84375 -0.78125 C 20.539062 -0.601562 20.179688 -0.4375 19.765625 -0.28125 C 19.359375 -0.125 18.910156 0.00390625 18.421875 0.109375 C 17.929688 0.210938 17.421875 0.265625 16.890625 0.265625 C 16.984375 0.0976562 17.054688 -0.0507812 17.109375 -0.1875 C 17.171875 -0.332031 17.222656 -0.472656 17.265625 -0.609375 C 17.304688 -0.742188 17.332031 -0.878906 17.34375 -1.015625 C 17.363281 -1.148438 17.375 -1.300781 17.375 -1.46875 C 17.375 -1.644531 17.359375 -1.960938 17.328125 -2.421875 C 17.304688 -2.890625 17.28125 -3.429688 17.25 -4.046875 C 17.226562 -4.671875 17.195312 -5.34375 17.15625 -6.0625 C 17.125 -6.789062 17.09375 -7.507812 17.0625 -8.21875 C 17.03125 -8.9375 17 -9.613281 16.96875 -10.25 C 16.945312 -10.894531 16.929688 -11.445312 16.921875 -11.90625 C 16.546875 -11.238281 16.175781 -10.625 15.8125 -10.0625 C 15.445312 -9.507812 15.085938 -8.972656 14.734375 -8.453125 C 14.378906 -7.941406 14.035156 -7.441406 13.703125 -6.953125 C 13.378906 -6.460938 13.0625 -5.953125 12.75 -5.421875 C 12.4375 -4.898438 12.140625 -4.34375 11.859375 -3.75 C 11.585938 -3.164062 11.332031 -2.519531 11.09375 -1.8125 L 9.234375 0.265625 C 9.242188 0.015625 9.191406 -0.285156 9.078125 -0.640625 C 8.972656 -0.992188 8.851562 -1.332031 8.71875 -1.65625 C 8.550781 -2.039062 8.363281 -2.4375 8.15625 -2.84375 C 7.914062 -3.28125 7.59375 -3.882812 7.1875 -4.65625 C 6.832031 -5.300781 6.363281 -6.164062 5.78125 -7.25 C 5.207031 -8.332031 4.488281 -9.679688 3.625 -11.296875 C 3.582031 -10.421875 3.535156 -9.535156 3.484375 -8.640625 C 3.441406 -7.753906 3.378906 -6.875 3.296875 -6 C 3.222656 -5.132812 3.113281 -4.28125 2.96875 -3.4375 C 2.832031 -2.601562 2.648438 -1.8125 2.421875 -1.0625 C 2.546875 -1.019531 2.679688 -0.988281 2.828125 -0.96875 C 2.984375 -0.945312 3.132812 -0.9375 3.28125 -0.9375 C 3.4375 -0.9375 3.582031 -0.941406 3.71875 -0.953125 C 3.863281 -0.972656 3.992188 -0.988281 4.109375 -1 C 4.234375 -1.019531 4.359375 -1.039062 4.484375 -1.0625 C 4.179688 -0.832031 3.90625 -0.632812 3.65625 -0.46875 C 3.40625 -0.3125 3.144531 -0.175781 2.875 -0.0625 C 2.613281 0.0507812 2.320312 0.132812 2 0.1875 C 1.675781 0.238281 1.296875 0.265625 0.859375 0.265625 C 1.054688 0.078125 1.226562 -0.238281 1.375 -0.6875 C 1.519531 -1.132812 1.644531 -1.664062 1.75 -2.28125 C 1.851562 -2.894531 1.9375 -3.578125 2 -4.328125 C 2.070312 -5.078125 2.132812 -5.84375 2.1875 -6.625 C 2.25 -7.414062 2.296875 -8.203125 2.328125 -8.984375 C 2.359375 -9.773438 2.390625 -10.523438 2.421875 -11.234375 C 2.460938 -11.953125 2.5 -12.601562 2.53125 -13.1875 C 2.5625 -13.769531 2.609375 -14.253906 2.671875 -14.640625 L 4.21875 -16.34375 C 4.164062 -16.226562 4.140625 -16.097656 4.140625 -15.953125 C 4.140625 -15.816406 4.148438 -15.679688 4.171875 -15.546875 C 4.203125 -15.398438 4.242188 -15.25 4.296875 -15.09375 C 4.335938 -15 4.4375 -14.796875 4.59375 -14.484375 C 4.75 -14.171875 4.941406 -13.785156 5.171875 -13.328125 C 5.410156 -12.867188 5.679688 -12.347656 5.984375 -11.765625 C 6.285156 -11.179688 6.597656 -10.570312 6.921875 -9.9375 C 7.253906 -9.3125 7.585938 -8.675781 7.921875 -8.03125 C 8.253906 -7.394531 8.570312 -6.78125 8.875 -6.1875 C 9.1875 -5.59375 9.46875 -5.039062 9.71875 -4.53125 C 9.976562 -4.019531 10.195312 -3.585938 10.375 -3.234375 C 10.976562 -4.171875 11.59375 -5.117188 12.21875 -6.078125 C 12.84375 -7.046875 13.441406 -8.003906 14.015625 -8.953125 C 14.585938 -9.910156 15.117188 -10.859375 15.609375 -11.796875 C 16.109375 -12.742188 16.535156 -13.675781 16.890625 -14.59375 L 19.125 -16.34375 C 19.082031 -15.019531 19.070312 -13.753906 19.09375 -12.546875 C 19.113281 -11.347656 19.144531 -10.175781 19.1875 -9.03125 C 19.238281 -7.882812 19.285156 -6.757812 19.328125 -5.65625 C 19.367188 -4.550781 19.390625 -3.445312 19.390625 -2.34375 C 19.390625 -2.019531 19.367188 -1.753906 19.328125 -1.546875 C 19.285156 -1.347656 19.21875 -1.207031 19.125 -1.125 C 19.445312 -1.082031 19.78125 -1.0625 20.125 -1.0625 C 20.40625 -1.0625 20.671875 -1.078125 20.921875 -1.109375 C 21.179688 -1.148438 21.394531 -1.203125 21.5625 -1.265625 Z M 21.5625 -1.265625 "/></g></g></g><g fill="#004aad" fill-opacity="1"><g transform="translate(110.166608, 288.645713)"><g><path d="M 4.265625 -1.109375 C 3.890625 -0.898438 3.523438 -0.722656 3.171875 -0.578125 C 2.828125 -0.429688 2.503906 -0.316406 2.203125 -0.234375 C 1.910156 -0.148438 1.644531 -0.0859375 1.40625 -0.046875 C 1.164062 -0.015625 0.960938 0 0.796875 0 L -0.8125 0 L 0.359375 -0.65625 C 0.472656 -0.8125 0.585938 -0.96875 0.703125 -1.125 C 0.816406 -1.28125 0.914062 -1.425781 1 -1.5625 C 1.082031 -1.707031 1.164062 -1.859375 1.25 -2.015625 C 1.46875 -2.460938 1.796875 -3.1875 2.234375 -4.1875 C 2.410156 -4.613281 2.617188 -5.117188 2.859375 -5.703125 C 3.109375 -6.296875 3.394531 -6.984375 3.71875 -7.765625 C 4.039062 -8.554688 4.394531 -9.445312 4.78125 -10.4375 C 5.175781 -11.4375 5.613281 -12.554688 6.09375 -13.796875 L 7.953125 -15.515625 L 12.140625 -1.3125 C 12.441406 -1.238281 12.726562 -1.1875 13 -1.15625 C 13.28125 -1.132812 13.539062 -1.125 13.78125 -1.125 C 13.90625 -1.125 14.019531 -1.125 14.125 -1.125 C 14.238281 -1.132812 14.332031 -1.144531 14.40625 -1.15625 C 14.488281 -1.164062 14.570312 -1.175781 14.65625 -1.1875 C 14.238281 -0.988281 13.875 -0.816406 13.5625 -0.671875 C 13.257812 -0.523438 12.988281 -0.398438 12.75 -0.296875 C 12.519531 -0.203125 12.300781 -0.128906 12.09375 -0.078125 C 11.894531 -0.0234375 11.691406 0 11.484375 0 L 9.765625 0 L 10.328125 -0.359375 L 8.625 -6.015625 C 8.414062 -5.953125 8.175781 -5.894531 7.90625 -5.84375 C 7.632812 -5.789062 7.3125 -5.742188 6.9375 -5.703125 C 6.5625 -5.660156 6.125 -5.617188 5.625 -5.578125 C 5.132812 -5.546875 4.566406 -5.515625 3.921875 -5.484375 C 3.617188 -4.859375 3.34375 -4.296875 3.09375 -3.796875 C 2.84375 -3.304688 2.617188 -2.878906 2.421875 -2.515625 C 2.222656 -2.148438 2.046875 -1.84375 1.890625 -1.59375 C 1.742188 -1.351562 1.613281 -1.15625 1.5 -1 C 1.625 -0.976562 1.757812 -0.960938 1.90625 -0.953125 C 2.0625 -0.941406 2.210938 -0.9375 2.359375 -0.9375 C 2.585938 -0.9375 2.8125 -0.945312 3.03125 -0.96875 C 3.257812 -0.988281 3.46875 -1.007812 3.65625 -1.03125 C 3.863281 -1.050781 4.066406 -1.078125 4.265625 -1.109375 Z M 5.75 -6.765625 C 6.71875 -6.765625 7.59375 -6.785156 8.375 -6.828125 L 6.734375 -12.25 C 6.296875 -11.113281 5.894531 -10.097656 5.53125 -9.203125 C 5.164062 -8.316406 4.816406 -7.503906 4.484375 -6.765625 Z M 5.75 -6.765625 "/></g></g></g><g fill="#004aad" fill-opacity="1"><g transform="translate(125.783043, 288.645713)"><g><path d="M 4.265625 -1.109375 C 3.890625 -0.898438 3.523438 -0.722656 3.171875 -0.578125 C 2.828125 -0.429688 2.503906 -0.316406 2.203125 -0.234375 C 1.910156 -0.148438 1.644531 -0.0859375 1.40625 -0.046875 C 1.164062 -0.015625 0.960938 0 0.796875 0 L -0.8125 0 L 0.359375 -0.65625 C 0.472656 -0.8125 0.585938 -0.96875 0.703125 -1.125 C 0.816406 -1.28125 0.914062 -1.425781 1 -1.5625 C 1.082031 -1.707031 1.164062 -1.859375 1.25 -2.015625 C 1.46875 -2.460938 1.796875 -3.1875 2.234375 -4.1875 C 2.410156 -4.613281 2.617188 -5.117188 2.859375 -5.703125 C 3.109375 -6.296875 3.394531 -6.984375 3.71875 -7.765625 C 4.039062 -8.554688 4.394531 -9.445312 4.78125 -10.4375 C 5.175781 -11.4375 5.613281 -12.554688 6.09375 -13.796875 L 7.953125 -15.515625 L 12.140625 -1.3125 C 12.441406 -1.238281 12.726562 -1.1875 13 -1.15625 C 13.28125 -1.132812 13.539062 -1.125 13.78125 -1.125 C 13.90625 -1.125 14.019531 -1.125 14.125 -1.125 C 14.238281 -1.132812 14.332031 -1.144531 14.40625 -1.15625 C 14.488281 -1.164062 14.570312 -1.175781 14.65625 -1.1875 C 14.238281 -0.988281 13.875 -0.816406 13.5625 -0.671875 C 13.257812 -0.523438 12.988281 -0.398438 12.75 -0.296875 C 12.519531 -0.203125 12.300781 -0.128906 12.09375 -0.078125 C 11.894531 -0.0234375 11.691406 0 11.484375 0 L 9.765625 0 L 10.328125 -0.359375 L 8.625 -6.015625 C 8.414062 -5.953125 8.175781 -5.894531 7.90625 -5.84375 C 7.632812 -5.789062 7.3125 -5.742188 6.9375 -5.703125 C 6.5625 -5.660156 6.125 -5.617188 5.625 -5.578125 C 5.132812 -5.546875 4.566406 -5.515625 3.921875 -5.484375 C 3.617188 -4.859375 3.34375 -4.296875 3.09375 -3.796875 C 2.84375 -3.304688 2.617188 -2.878906 2.421875 -2.515625 C 2.222656 -2.148438 2.046875 -1.84375 1.890625 -1.59375 C 1.742188 -1.351562 1.613281 -1.15625 1.5 -1 C 1.625 -0.976562 1.757812 -0.960938 1.90625 -0.953125 C 2.0625 -0.941406 2.210938 -0.9375 2.359375 -0.9375 C 2.585938 -0.9375 2.8125 -0.945312 3.03125 -0.96875 C 3.257812 -0.988281 3.46875 -1.007812 3.65625 -1.03125 C 3.863281 -1.050781 4.066406 -1.078125 4.265625 -1.109375 Z M 5.75 -6.765625 C 6.71875 -6.765625 7.59375 -6.785156 8.375 -6.828125 L 6.734375 -12.25 C 6.296875 -11.113281 5.894531 -10.097656 5.53125 -9.203125 C 5.164062 -8.316406 4.816406 -7.503906 4.484375 -6.765625 Z M 5.75 -6.765625 "/></g></g></g><g fill="#004aad" fill-opacity="1"><g transform="translate(141.399478, 288.645713)"><g><path d="M 6.078125 -15.421875 C 5.796875 -15.222656 5.476562 -15.015625 5.125 -14.796875 C 4.78125 -14.578125 4.453125 -14.398438 4.140625 -14.265625 C 4.109375 -13.347656 4.082031 -12.515625 4.0625 -11.765625 C 4.039062 -11.023438 4.019531 -10.351562 4 -9.75 C 3.988281 -9.144531 3.976562 -8.609375 3.96875 -8.140625 C 3.96875 -7.679688 3.960938 -7.28125 3.953125 -6.9375 C 3.941406 -6.125 3.9375 -5.503906 3.9375 -5.078125 C 3.925781 -4.566406 4 -4.070312 4.15625 -3.59375 C 4.3125 -3.125 4.566406 -2.695312 4.921875 -2.3125 C 5.273438 -1.9375 5.734375 -1.632812 6.296875 -1.40625 C 6.867188 -1.175781 7.5625 -1.0625 8.375 -1.0625 C 8.8125 -1.082031 9.269531 -1.148438 9.75 -1.265625 C 10.15625 -1.359375 10.601562 -1.503906 11.09375 -1.703125 C 11.582031 -1.910156 12.066406 -2.203125 12.546875 -2.578125 L 12.546875 -14.125 C 12.441406 -14.144531 12.332031 -14.15625 12.21875 -14.15625 C 12.113281 -14.15625 12.015625 -14.15625 11.921875 -14.15625 C 11.722656 -14.15625 11.523438 -14.148438 11.328125 -14.140625 C 11.128906 -14.128906 10.945312 -14.113281 10.78125 -14.09375 C 11.125 -14.382812 11.421875 -14.609375 11.671875 -14.765625 C 11.929688 -14.921875 12.15625 -15.039062 12.34375 -15.125 C 12.5625 -15.207031 12.75 -15.257812 12.90625 -15.28125 C 13.039062 -15.28125 13.207031 -15.28125 13.40625 -15.28125 C 13.613281 -15.28125 13.832031 -15.285156 14.0625 -15.296875 C 14.300781 -15.304688 14.539062 -15.316406 14.78125 -15.328125 C 15.019531 -15.335938 15.238281 -15.347656 15.4375 -15.359375 C 15.644531 -15.367188 15.820312 -15.378906 15.96875 -15.390625 C 16.113281 -15.398438 16.207031 -15.410156 16.25 -15.421875 C 16.007812 -15.242188 15.734375 -15.054688 15.421875 -14.859375 C 15.109375 -14.660156 14.8125 -14.5 14.53125 -14.375 L 14.53125 -3.359375 C 14.519531 -3.015625 14.5 -2.691406 14.46875 -2.390625 C 14.425781 -2.140625 14.375 -1.890625 14.3125 -1.640625 C 14.257812 -1.390625 14.171875 -1.21875 14.046875 -1.125 C 14.441406 -1.070312 14.789062 -1.035156 15.09375 -1.015625 C 15.40625 -1.003906 15.675781 -1 15.90625 -1 C 16.3125 -1 16.601562 -1.015625 16.78125 -1.046875 C 16.957031 -1.078125 17.054688 -1.097656 17.078125 -1.109375 C 16.742188 -0.921875 16.4375 -0.753906 16.15625 -0.609375 C 15.882812 -0.472656 15.625 -0.359375 15.375 -0.265625 C 15.125 -0.179688 14.882812 -0.113281 14.65625 -0.0625 C 14.425781 -0.0195312 14.191406 0 13.953125 0 L 11.875 0 C 12.039062 -0.0507812 12.164062 -0.171875 12.25 -0.359375 C 12.34375 -0.554688 12.410156 -0.757812 12.453125 -0.96875 C 12.503906 -1.207031 12.535156 -1.46875 12.546875 -1.75 L 12.546875 -2.25 C 11.785156 -1.632812 11.0625 -1.164062 10.375 -0.84375 C 9.695312 -0.519531 9.09375 -0.28125 8.5625 -0.125 C 7.9375 0.0507812 7.347656 0.148438 6.796875 0.171875 C 5.898438 0.171875 5.144531 0.0507812 4.53125 -0.1875 C 3.925781 -0.425781 3.441406 -0.757812 3.078125 -1.1875 C 2.710938 -1.613281 2.453125 -2.125 2.296875 -2.71875 C 2.148438 -3.320312 2.085938 -3.984375 2.109375 -4.703125 C 2.097656 -5.296875 2.097656 -6.039062 2.109375 -6.9375 C 2.117188 -7.695312 2.128906 -8.671875 2.140625 -9.859375 C 2.160156 -11.046875 2.191406 -12.476562 2.234375 -14.15625 L 1.75 -14.15625 C 1.550781 -14.15625 1.351562 -14.148438 1.15625 -14.140625 C 0.957031 -14.128906 0.773438 -14.113281 0.609375 -14.09375 C 0.941406 -14.382812 1.238281 -14.609375 1.5 -14.765625 C 1.757812 -14.921875 1.984375 -15.039062 2.171875 -15.125 C 2.378906 -15.207031 2.566406 -15.257812 2.734375 -15.28125 C 2.867188 -15.28125 3.039062 -15.28125 3.25 -15.28125 C 3.457031 -15.28125 3.675781 -15.285156 3.90625 -15.296875 C 4.132812 -15.304688 4.367188 -15.316406 4.609375 -15.328125 C 4.847656 -15.335938 5.066406 -15.347656 5.265625 -15.359375 C 5.472656 -15.367188 5.644531 -15.378906 5.78125 -15.390625 C 5.925781 -15.398438 6.023438 -15.410156 6.078125 -15.421875 Z M 17.078125 -1.109375 L 17.078125 -1.125 L 17.09375 -1.125 C 17.09375 -1.125 17.097656 -1.125 17.109375 -1.125 Z M 17.078125 -1.109375 "/></g></g></g><g fill="#004aad" fill-opacity="1"><g transform="translate(160.005568, 288.645713)"><g><path d="M 13.5625 -14.921875 C 13.488281 -14.878906 13.367188 -14.8125 13.203125 -14.71875 C 13.054688 -14.632812 12.859375 -14.519531 12.609375 -14.375 C 12.367188 -14.226562 12.050781 -14.046875 11.65625 -13.828125 C 11.78125 -13.984375 11.835938 -14.09375 11.828125 -14.15625 C 11.816406 -14.226562 11.785156 -14.273438 11.734375 -14.296875 C 11.660156 -14.316406 11.5625 -14.316406 11.4375 -14.296875 C 11.363281 -14.285156 11.207031 -14.269531 10.96875 -14.25 C 10.738281 -14.238281 10.445312 -14.222656 10.09375 -14.203125 C 9.75 -14.191406 9.347656 -14.175781 8.890625 -14.15625 C 8.441406 -14.144531 7.972656 -14.132812 7.484375 -14.125 C 7.453125 -12.9375 7.425781 -11.875 7.40625 -10.9375 C 7.382812 -10 7.363281 -9.164062 7.34375 -8.4375 C 7.320312 -7.707031 7.304688 -7.078125 7.296875 -6.546875 C 7.285156 -6.015625 7.28125 -5.5625 7.28125 -5.1875 C 7.25 -4.300781 7.234375 -3.6875 7.234375 -3.34375 C 7.234375 -3.082031 7.203125 -2.820312 7.140625 -2.5625 C 7.078125 -2.34375 6.988281 -2.101562 6.875 -1.84375 C 6.757812 -1.59375 6.597656 -1.367188 6.390625 -1.171875 C 6.523438 -1.148438 6.648438 -1.132812 6.765625 -1.125 C 6.890625 -1.125 7.015625 -1.125 7.140625 -1.125 C 7.472656 -1.125 7.769531 -1.140625 8.03125 -1.171875 C 8.300781 -1.210938 8.53125 -1.25 8.71875 -1.28125 C 8.914062 -1.3125 9.070312 -1.34375 9.1875 -1.375 C 9.3125 -1.414062 9.382812 -1.445312 9.40625 -1.46875 C 9.03125 -1.207031 8.71875 -0.984375 8.46875 -0.796875 C 8.21875 -0.609375 7.992188 -0.457031 7.796875 -0.34375 C 7.597656 -0.226562 7.398438 -0.140625 7.203125 -0.078125 C 7.015625 -0.0234375 6.789062 0 6.53125 0 C 6.195312 0 5.910156 -0.0078125 5.671875 -0.03125 C 5.429688 -0.0625 5.191406 -0.078125 4.953125 -0.078125 C 4.828125 -0.078125 4.703125 -0.0703125 4.578125 -0.0625 C 4.453125 -0.0507812 4.3125 -0.03125 4.15625 0 C 4.351562 -0.164062 4.535156 -0.347656 4.703125 -0.546875 C 4.867188 -0.753906 5.007812 -1.003906 5.125 -1.296875 C 5.238281 -1.585938 5.328125 -1.9375 5.390625 -2.34375 C 5.453125 -2.75 5.484375 -3.242188 5.484375 -3.828125 L 5.484375 -14.0625 C 4.867188 -14.050781 4.265625 -14.035156 3.671875 -14.015625 C 3.078125 -14.003906 2.539062 -13.992188 2.0625 -13.984375 C 1.582031 -13.972656 1.179688 -13.957031 0.859375 -13.9375 C 0.535156 -13.925781 0.332031 -13.921875 0.25 -13.921875 C 0.0507812 -13.898438 -0.0859375 -13.90625 -0.171875 -13.9375 C -0.265625 -13.976562 -0.304688 -14.035156 -0.296875 -14.109375 C -0.285156 -14.179688 -0.234375 -14.269531 -0.140625 -14.375 C -0.046875 -14.476562 0.0820312 -14.59375 0.25 -14.71875 L 1.703125 -15.78125 C 1.597656 -15.644531 1.566406 -15.546875 1.609375 -15.484375 C 1.648438 -15.421875 1.710938 -15.375 1.796875 -15.34375 C 1.890625 -15.300781 2.019531 -15.28125 2.1875 -15.28125 C 2.300781 -15.28125 2.53125 -15.28125 2.875 -15.28125 C 3.226562 -15.289062 3.65625 -15.300781 4.15625 -15.3125 C 4.65625 -15.320312 5.210938 -15.332031 5.828125 -15.34375 C 6.441406 -15.351562 7.066406 -15.363281 7.703125 -15.375 C 8.335938 -15.394531 8.957031 -15.410156 9.5625 -15.421875 C 10.175781 -15.441406 10.734375 -15.457031 11.234375 -15.46875 C 11.742188 -15.476562 12.171875 -15.488281 12.515625 -15.5 C 12.867188 -15.507812 13.101562 -15.519531 13.21875 -15.53125 C 13.4375 -15.539062 13.59375 -15.519531 13.6875 -15.46875 C 13.789062 -15.425781 13.847656 -15.367188 13.859375 -15.296875 C 13.867188 -15.234375 13.84375 -15.164062 13.78125 -15.09375 C 13.71875 -15.019531 13.644531 -14.960938 13.5625 -14.921875 Z M 9.40625 -1.46875 C 9.414062 -1.476562 9.425781 -1.484375 9.4375 -1.484375 Z M 9.40625 -1.46875 "/></g></g></g><g fill="#004aad" fill-opacity="1"><g transform="translate(174.981363, 288.645713)"><g><path d="M 16.03125 -8.28125 C 16.03125 -7.382812 15.878906 -6.550781 15.578125 -5.78125 C 15.285156 -5.007812 14.890625 -4.304688 14.390625 -3.671875 C 13.898438 -3.035156 13.335938 -2.472656 12.703125 -1.984375 C 12.078125 -1.503906 11.4375 -1.097656 10.78125 -0.765625 C 10.125 -0.429688 9.476562 -0.175781 8.84375 0 C 8.207031 0.164062 7.640625 0.25 7.140625 0.25 C 6.710938 0.25 6.257812 0.179688 5.78125 0.046875 C 5.300781 -0.0859375 4.828125 -0.28125 4.359375 -0.53125 C 3.890625 -0.789062 3.441406 -1.113281 3.015625 -1.5 C 2.585938 -1.894531 2.210938 -2.347656 1.890625 -2.859375 C 1.566406 -3.367188 1.304688 -3.9375 1.109375 -4.5625 C 0.921875 -5.195312 0.828125 -5.890625 0.828125 -6.640625 C 0.828125 -7.628906 0.96875 -8.535156 1.25 -9.359375 C 1.53125 -10.191406 1.898438 -10.9375 2.359375 -11.59375 C 2.816406 -12.25 3.335938 -12.820312 3.921875 -13.3125 C 4.515625 -13.8125 5.117188 -14.222656 5.734375 -14.546875 C 6.347656 -14.867188 6.953125 -15.109375 7.546875 -15.265625 C 8.148438 -15.429688 8.691406 -15.515625 9.171875 -15.515625 C 9.671875 -15.515625 10.1875 -15.457031 10.71875 -15.34375 C 11.257812 -15.238281 11.78125 -15.066406 12.28125 -14.828125 C 12.789062 -14.597656 13.269531 -14.296875 13.71875 -13.921875 C 14.175781 -13.546875 14.578125 -13.09375 14.921875 -12.5625 C 15.265625 -12.03125 15.535156 -11.410156 15.734375 -10.703125 C 15.929688 -9.992188 16.03125 -9.1875 16.03125 -8.28125 Z M 14.09375 -7.640625 C 14.09375 -8.421875 13.992188 -9.128906 13.796875 -9.765625 C 13.609375 -10.398438 13.351562 -10.960938 13.03125 -11.453125 C 12.707031 -11.953125 12.332031 -12.378906 11.90625 -12.734375 C 11.476562 -13.097656 11.035156 -13.398438 10.578125 -13.640625 C 10.117188 -13.878906 9.65625 -14.050781 9.1875 -14.15625 C 8.71875 -14.269531 8.269531 -14.328125 7.84375 -14.328125 C 7.175781 -14.328125 6.53125 -14.195312 5.90625 -13.9375 C 5.28125 -13.6875 4.722656 -13.289062 4.234375 -12.75 C 3.742188 -12.21875 3.351562 -11.523438 3.0625 -10.671875 C 2.769531 -9.828125 2.625 -8.816406 2.625 -7.640625 C 2.625 -6.847656 2.738281 -6.132812 2.96875 -5.5 C 3.195312 -4.875 3.492188 -4.320312 3.859375 -3.84375 C 4.234375 -3.363281 4.65625 -2.953125 5.125 -2.609375 C 5.59375 -2.273438 6.066406 -2 6.546875 -1.78125 C 7.023438 -1.570312 7.488281 -1.414062 7.9375 -1.3125 C 8.394531 -1.21875 8.789062 -1.171875 9.125 -1.171875 C 9.457031 -1.171875 9.8125 -1.21875 10.1875 -1.3125 C 10.5625 -1.414062 10.929688 -1.570312 11.296875 -1.78125 C 11.671875 -2 12.023438 -2.28125 12.359375 -2.625 C 12.691406 -2.96875 12.984375 -3.378906 13.234375 -3.859375 C 13.492188 -4.335938 13.703125 -4.890625 13.859375 -5.515625 C 14.015625 -6.140625 14.09375 -6.847656 14.09375 -7.640625 Z M 14.09375 -7.640625 "/></g></g></g><g fill="#004aad" fill-opacity="1"><g transform="translate(193.459324, 288.645713)"><g><path d="M 21.5625 -1.265625 C 21.394531 -1.128906 21.15625 -0.96875 20.84375 -0.78125 C 20.539062 -0.601562 20.179688 -0.4375 19.765625 -0.28125 C 19.359375 -0.125 18.910156 0.00390625 18.421875 0.109375 C 17.929688 0.210938 17.421875 0.265625 16.890625 0.265625 C 16.984375 0.0976562 17.054688 -0.0507812 17.109375 -0.1875 C 17.171875 -0.332031 17.222656 -0.472656 17.265625 -0.609375 C 17.304688 -0.742188 17.332031 -0.878906 17.34375 -1.015625 C 17.363281 -1.148438 17.375 -1.300781 17.375 -1.46875 C 17.375 -1.644531 17.359375 -1.960938 17.328125 -2.421875 C 17.304688 -2.890625 17.28125 -3.429688 17.25 -4.046875 C 17.226562 -4.671875 17.195312 -5.34375 17.15625 -6.0625 C 17.125 -6.789062 17.09375 -7.507812 17.0625 -8.21875 C 17.03125 -8.9375 17 -9.613281 16.96875 -10.25 C 16.945312 -10.894531 16.929688 -11.445312 16.921875 -11.90625 C 16.546875 -11.238281 16.175781 -10.625 15.8125 -10.0625 C 15.445312 -9.507812 15.085938 -8.972656 14.734375 -8.453125 C 14.378906 -7.941406 14.035156 -7.441406 13.703125 -6.953125 C 13.378906 -6.460938 13.0625 -5.953125 12.75 -5.421875 C 12.4375 -4.898438 12.140625 -4.34375 11.859375 -3.75 C 11.585938 -3.164062 11.332031 -2.519531 11.09375 -1.8125 L 9.234375 0.265625 C 9.242188 0.015625 9.191406 -0.285156 9.078125 -0.640625 C 8.972656 -0.992188 8.851562 -1.332031 8.71875 -1.65625 C 8.550781 -2.039062 8.363281 -2.4375 8.15625 -2.84375 C 7.914062 -3.28125 7.59375 -3.882812 7.1875 -4.65625 C 6.832031 -5.300781 6.363281 -6.164062 5.78125 -7.25 C 5.207031 -8.332031 4.488281 -9.679688 3.625 -11.296875 C 3.582031 -10.421875 3.535156 -9.535156 3.484375 -8.640625 C 3.441406 -7.753906 3.378906 -6.875 3.296875 -6 C 3.222656 -5.132812 3.113281 -4.28125 2.96875 -3.4375 C 2.832031 -2.601562 2.648438 -1.8125 2.421875 -1.0625 C 2.546875 -1.019531 2.679688 -0.988281 2.828125 -0.96875 C 2.984375 -0.945312 3.132812 -0.9375 3.28125 -0.9375 C 3.4375 -0.9375 3.582031 -0.941406 3.71875 -0.953125 C 3.863281 -0.972656 3.992188 -0.988281 4.109375 -1 C 4.234375 -1.019531 4.359375 -1.039062 4.484375 -1.0625 C 4.179688 -0.832031 3.90625 -0.632812 3.65625 -0.46875 C 3.40625 -0.3125 3.144531 -0.175781 2.875 -0.0625 C 2.613281 0.0507812 2.320312 0.132812 2 0.1875 C 1.675781 0.238281 1.296875 0.265625 0.859375 0.265625 C 1.054688 0.078125 1.226562 -0.238281 1.375 -0.6875 C 1.519531 -1.132812 1.644531 -1.664062 1.75 -2.28125 C 1.851562 -2.894531 1.9375 -3.578125 2 -4.328125 C 2.070312 -5.078125 2.132812 -5.84375 2.1875 -6.625 C 2.25 -7.414062 2.296875 -8.203125 2.328125 -8.984375 C 2.359375 -9.773438 2.390625 -10.523438 2.421875 -11.234375 C 2.460938 -11.953125 2.5 -12.601562 2.53125 -13.1875 C 2.5625 -13.769531 2.609375 -14.253906 2.671875 -14.640625 L 4.21875 -16.34375 C 4.164062 -16.226562 4.140625 -16.097656 4.140625 -15.953125 C 4.140625 -15.816406 4.148438 -15.679688 4.171875 -15.546875 C 4.203125 -15.398438 4.242188 -15.25 4.296875 -15.09375 C 4.335938 -15 4.4375 -14.796875 4.59375 -14.484375 C 4.75 -14.171875 4.941406 -13.785156 5.171875 -13.328125 C 5.410156 -12.867188 5.679688 -12.347656 5.984375 -11.765625 C 6.285156 -11.179688 6.597656 -10.570312 6.921875 -9.9375 C 7.253906 -9.3125 7.585938 -8.675781 7.921875 -8.03125 C 8.253906 -7.394531 8.570312 -6.78125 8.875 -6.1875 C 9.1875 -5.59375 9.46875 -5.039062 9.71875 -4.53125 C 9.976562 -4.019531 10.195312 -3.585938 10.375 -3.234375 C 10.976562 -4.171875 11.59375 -5.117188 12.21875 -6.078125 C 12.84375 -7.046875 13.441406 -8.003906 14.015625 -8.953125 C 14.585938 -9.910156 15.117188 -10.859375 15.609375 -11.796875 C 16.109375 -12.742188 16.535156 -13.675781 16.890625 -14.59375 L 19.125 -16.34375 C 19.082031 -15.019531 19.070312 -13.753906 19.09375 -12.546875 C 19.113281 -11.347656 19.144531 -10.175781 19.1875 -9.03125 C 19.238281 -7.882812 19.285156 -6.757812 19.328125 -5.65625 C 19.367188 -4.550781 19.390625 -3.445312 19.390625 -2.34375 C 19.390625 -2.019531 19.367188 -1.753906 19.328125 -1.546875 C 19.285156 -1.347656 19.21875 -1.207031 19.125 -1.125 C 19.445312 -1.082031 19.78125 -1.0625 20.125 -1.0625 C 20.40625 -1.0625 20.671875 -1.078125 20.921875 -1.109375 C 21.179688 -1.148438 21.394531 -1.203125 21.5625 -1.265625 Z M 21.5625 -1.265625 "/></g></g></g><g fill="#004aad" fill-opacity="1"><g transform="translate(216.731409, 288.645713)"><g><path d="M 4.265625 -1.109375 C 3.890625 -0.898438 3.523438 -0.722656 3.171875 -0.578125 C 2.828125 -0.429688 2.503906 -0.316406 2.203125 -0.234375 C 1.910156 -0.148438 1.644531 -0.0859375 1.40625 -0.046875 C 1.164062 -0.015625 0.960938 0 0.796875 0 L -0.8125 0 L 0.359375 -0.65625 C 0.472656 -0.8125 0.585938 -0.96875 0.703125 -1.125 C 0.816406 -1.28125 0.914062 -1.425781 1 -1.5625 C 1.082031 -1.707031 1.164062 -1.859375 1.25 -2.015625 C 1.46875 -2.460938 1.796875 -3.1875 2.234375 -4.1875 C 2.410156 -4.613281 2.617188 -5.117188 2.859375 -5.703125 C 3.109375 -6.296875 3.394531 -6.984375 3.71875 -7.765625 C 4.039062 -8.554688 4.394531 -9.445312 4.78125 -10.4375 C 5.175781 -11.4375 5.613281 -12.554688 6.09375 -13.796875 L 7.953125 -15.515625 L 12.140625 -1.3125 C 12.441406 -1.238281 12.726562 -1.1875 13 -1.15625 C 13.28125 -1.132812 13.539062 -1.125 13.78125 -1.125 C 13.90625 -1.125 14.019531 -1.125 14.125 -1.125 C 14.238281 -1.132812 14.332031 -1.144531 14.40625 -1.15625 C 14.488281 -1.164062 14.570312 -1.175781 14.65625 -1.1875 C 14.238281 -0.988281 13.875 -0.816406 13.5625 -0.671875 C 13.257812 -0.523438 12.988281 -0.398438 12.75 -0.296875 C 12.519531 -0.203125 12.300781 -0.128906 12.09375 -0.078125 C 11.894531 -0.0234375 11.691406 0 11.484375 0 L 9.765625 0 L 10.328125 -0.359375 L 8.625 -6.015625 C 8.414062 -5.953125 8.175781 -5.894531 7.90625 -5.84375 C 7.632812 -5.789062 7.3125 -5.742188 6.9375 -5.703125 C 6.5625 -5.660156 6.125 -5.617188 5.625 -5.578125 C 5.132812 -5.546875 4.566406 -5.515625 3.921875 -5.484375 C 3.617188 -4.859375 3.34375 -4.296875 3.09375 -3.796875 C 2.84375 -3.304688 2.617188 -2.878906 2.421875 -2.515625 C 2.222656 -2.148438 2.046875 -1.84375 1.890625 -1.59375 C 1.742188 -1.351562 1.613281 -1.15625 1.5 -1 C 1.625 -0.976562 1.757812 -0.960938 1.90625 -0.953125 C 2.0625 -0.941406 2.210938 -0.9375 2.359375 -0.9375 C 2.585938 -0.9375 2.8125 -0.945312 3.03125 -0.96875 C 3.257812 -0.988281 3.46875 -1.007812 3.65625 -1.03125 C 3.863281 -1.050781 4.066406 -1.078125 4.265625 -1.109375 Z M 5.75 -6.765625 C 6.71875 -6.765625 7.59375 -6.785156 8.375 -6.828125 L 6.734375 -12.25 C 6.296875 -11.113281 5.894531 -10.097656 5.53125 -9.203125 C 5.164062 -8.316406 4.816406 -7.503906 4.484375 -6.765625 Z M 5.75 -6.765625 "/></g></g></g><g fill="#004aad" fill-opacity="1"><g transform="translate(232.347844, 288.645713)"><g><path d="M 13.5625 -14.921875 C 13.488281 -14.878906 13.367188 -14.8125 13.203125 -14.71875 C 13.054688 -14.632812 12.859375 -14.519531 12.609375 -14.375 C 12.367188 -14.226562 12.050781 -14.046875 11.65625 -13.828125 C 11.78125 -13.984375 11.835938 -14.09375 11.828125 -14.15625 C 11.816406 -14.226562 11.785156 -14.273438 11.734375 -14.296875 C 11.660156 -14.316406 11.5625 -14.316406 11.4375 -14.296875 C 11.363281 -14.285156 11.207031 -14.269531 10.96875 -14.25 C 10.738281 -14.238281 10.445312 -14.222656 10.09375 -14.203125 C 9.75 -14.191406 9.347656 -14.175781 8.890625 -14.15625 C 8.441406 -14.144531 7.972656 -14.132812 7.484375 -14.125 C 7.453125 -12.9375 7.425781 -11.875 7.40625 -10.9375 C 7.382812 -10 7.363281 -9.164062 7.34375 -8.4375 C 7.320312 -7.707031 7.304688 -7.078125 7.296875 -6.546875 C 7.285156 -6.015625 7.28125 -5.5625 7.28125 -5.1875 C 7.25 -4.300781 7.234375 -3.6875 7.234375 -3.34375 C 7.234375 -3.082031 7.203125 -2.820312 7.140625 -2.5625 C 7.078125 -2.34375 6.988281 -2.101562 6.875 -1.84375 C 6.757812 -1.59375 6.597656 -1.367188 6.390625 -1.171875 C 6.523438 -1.148438 6.648438 -1.132812 6.765625 -1.125 C 6.890625 -1.125 7.015625 -1.125 7.140625 -1.125 C 7.472656 -1.125 7.769531 -1.140625 8.03125 -1.171875 C 8.300781 -1.210938 8.53125 -1.25 8.71875 -1.28125 C 8.914062 -1.3125 9.070312 -1.34375 9.1875 -1.375 C 9.3125 -1.414062 9.382812 -1.445312 9.40625 -1.46875 C 9.03125 -1.207031 8.71875 -0.984375 8.46875 -0.796875 C 8.21875 -0.609375 7.992188 -0.457031 7.796875 -0.34375 C 7.597656 -0.226562 7.398438 -0.140625 7.203125 -0.078125 C 7.015625 -0.0234375 6.789062 0 6.53125 0 C 6.195312 0 5.910156 -0.0078125 5.671875 -0.03125 C 5.429688 -0.0625 5.191406 -0.078125 4.953125 -0.078125 C 4.828125 -0.078125 4.703125 -0.0703125 4.578125 -0.0625 C 4.453125 -0.0507812 4.3125 -0.03125 4.15625 0 C 4.351562 -0.164062 4.535156 -0.347656 4.703125 -0.546875 C 4.867188 -0.753906 5.007812 -1.003906 5.125 -1.296875 C 5.238281 -1.585938 5.328125 -1.9375 5.390625 -2.34375 C 5.453125 -2.75 5.484375 -3.242188 5.484375 -3.828125 L 5.484375 -14.0625 C 4.867188 -14.050781 4.265625 -14.035156 3.671875 -14.015625 C 3.078125 -14.003906 2.539062 -13.992188 2.0625 -13.984375 C 1.582031 -13.972656 1.179688 -13.957031 0.859375 -13.9375 C 0.535156 -13.925781 0.332031 -13.921875 0.25 -13.921875 C 0.0507812 -13.898438 -0.0859375 -13.90625 -0.171875 -13.9375 C -0.265625 -13.976562 -0.304688 -14.035156 -0.296875 -14.109375 C -0.285156 -14.179688 -0.234375 -14.269531 -0.140625 -14.375 C -0.046875 -14.476562 0.0820312 -14.59375 0.25 -14.71875 L 1.703125 -15.78125 C 1.597656 -15.644531 1.566406 -15.546875 1.609375 -15.484375 C 1.648438 -15.421875 1.710938 -15.375 1.796875 -15.34375 C 1.890625 -15.300781 2.019531 -15.28125 2.1875 -15.28125 C 2.300781 -15.28125 2.53125 -15.28125 2.875 -15.28125 C 3.226562 -15.289062 3.65625 -15.300781 4.15625 -15.3125 C 4.65625 -15.320312 5.210938 -15.332031 5.828125 -15.34375 C 6.441406 -15.351562 7.066406 -15.363281 7.703125 -15.375 C 8.335938 -15.394531 8.957031 -15.410156 9.5625 -15.421875 C 10.175781 -15.441406 10.734375 -15.457031 11.234375 -15.46875 C 11.742188 -15.476562 12.171875 -15.488281 12.515625 -15.5 C 12.867188 -15.507812 13.101562 -15.519531 13.21875 -15.53125 C 13.4375 -15.539062 13.59375 -15.519531 13.6875 -15.46875 C 13.789062 -15.425781 13.847656 -15.367188 13.859375 -15.296875 C 13.867188 -15.234375 13.84375 -15.164062 13.78125 -15.09375 C 13.71875 -15.019531 13.644531 -14.960938 13.5625 -14.921875 Z M 9.40625 -1.46875 C 9.414062 -1.476562 9.425781 -1.484375 9.4375 -1.484375 Z M 9.40625 -1.46875 "/></g></g></g><g fill="#004aad" fill-opacity="1"><g transform="translate(247.323639, 288.645713)"><g><path d="M 6.453125 -1.375 C 6.066406 -1.125 5.75 -0.90625 5.5 -0.71875 C 5.25 -0.53125 5.019531 -0.375 4.8125 -0.25 C 4.613281 -0.132812 4.421875 -0.0507812 4.234375 0 C 4.046875 0.0507812 3.820312 0.078125 3.5625 0.078125 C 3.226562 0.078125 2.9375 0.0625 2.6875 0.03125 C 2.445312 0.0078125 2.207031 0 1.96875 0 C 1.84375 0 1.71875 0.00390625 1.59375 0.015625 C 1.46875 0.0234375 1.332031 0.046875 1.1875 0.078125 C 1.382812 -0.0859375 1.5625 -0.269531 1.71875 -0.46875 C 1.882812 -0.664062 2.023438 -0.910156 2.140625 -1.203125 C 2.265625 -1.492188 2.359375 -1.84375 2.421875 -2.25 C 2.484375 -2.664062 2.515625 -3.160156 2.515625 -3.734375 L 2.515625 -14.53125 C 2.296875 -14.507812 2.03125 -14.476562 1.71875 -14.4375 C 1.40625 -14.40625 1.050781 -14.359375 0.65625 -14.296875 C 1.039062 -14.609375 1.382812 -14.847656 1.6875 -15.015625 C 2 -15.179688 2.265625 -15.300781 2.484375 -15.375 C 2.742188 -15.46875 2.972656 -15.519531 3.171875 -15.53125 C 3.421875 -15.519531 3.695312 -15.519531 4 -15.53125 C 4.300781 -15.550781 4.59375 -15.570312 4.875 -15.59375 C 5.15625 -15.625 5.410156 -15.65625 5.640625 -15.6875 C 5.878906 -15.726562 6.054688 -15.769531 6.171875 -15.8125 C 5.835938 -15.59375 5.535156 -15.40625 5.265625 -15.25 C 5.003906 -15.101562 4.75 -14.976562 4.5 -14.875 C 4.46875 -13.59375 4.4375 -12.441406 4.40625 -11.421875 C 4.382812 -10.398438 4.363281 -9.492188 4.34375 -8.703125 C 4.332031 -7.921875 4.320312 -7.242188 4.3125 -6.671875 C 4.300781 -6.097656 4.289062 -5.609375 4.28125 -5.203125 C 4.257812 -4.253906 4.253906 -3.601562 4.265625 -3.25 C 4.253906 -2.988281 4.21875 -2.734375 4.15625 -2.484375 C 4.09375 -2.253906 4.003906 -2.007812 3.890625 -1.75 C 3.785156 -1.5 3.625 -1.269531 3.40625 -1.0625 C 3.539062 -1.050781 3.671875 -1.046875 3.796875 -1.046875 C 3.929688 -1.046875 4.054688 -1.046875 4.171875 -1.046875 C 4.535156 -1.046875 4.859375 -1.0625 5.140625 -1.09375 C 5.421875 -1.125 5.660156 -1.160156 5.859375 -1.203125 C 6.078125 -1.253906 6.273438 -1.3125 6.453125 -1.375 Z M 6.453125 -1.375 "/></g></g></g><g fill="#004aad" fill-opacity="1"><g transform="translate(255.786247, 288.645713)"><g><path d="M 16.03125 -8.28125 C 16.03125 -7.382812 15.878906 -6.550781 15.578125 -5.78125 C 15.285156 -5.007812 14.890625 -4.304688 14.390625 -3.671875 C 13.898438 -3.035156 13.335938 -2.472656 12.703125 -1.984375 C 12.078125 -1.503906 11.4375 -1.097656 10.78125 -0.765625 C 10.125 -0.429688 9.476562 -0.175781 8.84375 0 C 8.207031 0.164062 7.640625 0.25 7.140625 0.25 C 6.710938 0.25 6.257812 0.179688 5.78125 0.046875 C 5.300781 -0.0859375 4.828125 -0.28125 4.359375 -0.53125 C 3.890625 -0.789062 3.441406 -1.113281 3.015625 -1.5 C 2.585938 -1.894531 2.210938 -2.347656 1.890625 -2.859375 C 1.566406 -3.367188 1.304688 -3.9375 1.109375 -4.5625 C 0.921875 -5.195312 0.828125 -5.890625 0.828125 -6.640625 C 0.828125 -7.628906 0.96875 -8.535156 1.25 -9.359375 C 1.53125 -10.191406 1.898438 -10.9375 2.359375 -11.59375 C 2.816406 -12.25 3.335938 -12.820312 3.921875 -13.3125 C 4.515625 -13.8125 5.117188 -14.222656 5.734375 -14.546875 C 6.347656 -14.867188 6.953125 -15.109375 7.546875 -15.265625 C 8.148438 -15.429688 8.691406 -15.515625 9.171875 -15.515625 C 9.671875 -15.515625 10.1875 -15.457031 10.71875 -15.34375 C 11.257812 -15.238281 11.78125 -15.066406 12.28125 -14.828125 C 12.789062 -14.597656 13.269531 -14.296875 13.71875 -13.921875 C 14.175781 -13.546875 14.578125 -13.09375 14.921875 -12.5625 C 15.265625 -12.03125 15.535156 -11.410156 15.734375 -10.703125 C 15.929688 -9.992188 16.03125 -9.1875 16.03125 -8.28125 Z M 14.09375 -7.640625 C 14.09375 -8.421875 13.992188 -9.128906 13.796875 -9.765625 C 13.609375 -10.398438 13.351562 -10.960938 13.03125 -11.453125 C 12.707031 -11.953125 12.332031 -12.378906 11.90625 -12.734375 C 11.476562 -13.097656 11.035156 -13.398438 10.578125 -13.640625 C 10.117188 -13.878906 9.65625 -14.050781 9.1875 -14.15625 C 8.71875 -14.269531 8.269531 -14.328125 7.84375 -14.328125 C 7.175781 -14.328125 6.53125 -14.195312 5.90625 -13.9375 C 5.28125 -13.6875 4.722656 -13.289062 4.234375 -12.75 C 3.742188 -12.21875 3.351562 -11.523438 3.0625 -10.671875 C 2.769531 -9.828125 2.625 -8.816406 2.625 -7.640625 C 2.625 -6.847656 2.738281 -6.132812 2.96875 -5.5 C 3.195312 -4.875 3.492188 -4.320312 3.859375 -3.84375 C 4.234375 -3.363281 4.65625 -2.953125 5.125 -2.609375 C 5.59375 -2.273438 6.066406 -2 6.546875 -1.78125 C 7.023438 -1.570312 7.488281 -1.414062 7.9375 -1.3125 C 8.394531 -1.21875 8.789062 -1.171875 9.125 -1.171875 C 9.457031 -1.171875 9.8125 -1.21875 10.1875 -1.3125 C 10.5625 -1.414062 10.929688 -1.570312 11.296875 -1.78125 C 11.671875 -2 12.023438 -2.28125 12.359375 -2.625 C 12.691406 -2.96875 12.984375 -3.378906 13.234375 -3.859375 C 13.492188 -4.335938 13.703125 -4.890625 13.859375 -5.515625 C 14.015625 -6.140625 14.09375 -6.847656 14.09375 -7.640625 Z M 14.09375 -7.640625 "/></g></g></g><g fill="#004aad" fill-opacity="1"><g transform="translate(274.264197, 288.645713)"><g><path d="M 3.09375 -1.96875 C 3.070312 -1.90625 3.035156 -1.828125 2.984375 -1.734375 C 2.941406 -1.660156 2.878906 -1.5625 2.796875 -1.4375 C 2.722656 -1.320312 2.617188 -1.1875 2.484375 -1.03125 C 2.691406 -0.988281 2.898438 -0.957031 3.109375 -0.9375 C 3.316406 -0.925781 3.515625 -0.921875 3.703125 -0.921875 C 4.054688 -0.921875 4.34375 -0.929688 4.5625 -0.953125 C 4.789062 -0.984375 4.925781 -1.007812 4.96875 -1.03125 C 4.632812 -0.875 4.351562 -0.726562 4.125 -0.59375 C 3.90625 -0.457031 3.679688 -0.335938 3.453125 -0.234375 C 3.222656 -0.128906 2.957031 -0.046875 2.65625 0.015625 C 2.363281 0.0859375 1.972656 0.132812 1.484375 0.15625 C 1.515625 0.132812 1.5625 0.078125 1.625 -0.015625 L 1.421875 0.15625 C 1.316406 0.164062 1.210938 0.171875 1.109375 0.171875 C 1.003906 0.171875 0.898438 0.171875 0.796875 0.171875 L 1.765625 -0.5625 C 1.796875 -0.738281 1.828125 -0.929688 1.859375 -1.140625 C 1.890625 -1.359375 1.914062 -1.582031 1.9375 -1.8125 C 1.957031 -2.050781 1.976562 -2.289062 2 -2.53125 C 2.019531 -2.769531 2.035156 -3.003906 2.046875 -3.234375 C 2.085938 -3.765625 2.117188 -4.304688 2.140625 -4.859375 C 2.179688 -6.472656 2.207031 -8.0625 2.21875 -9.625 C 2.238281 -11.1875 2.25 -12.757812 2.25 -14.34375 L 3.4375 -16.25 C 3.476562 -15.570312 3.609375 -14.914062 3.828125 -14.28125 C 4.054688 -13.644531 4.347656 -13.03125 4.703125 -12.4375 C 5.054688 -11.84375 5.457031 -11.269531 5.90625 -10.71875 C 6.363281 -10.164062 6.847656 -9.625 7.359375 -9.09375 C 7.878906 -8.570312 8.40625 -8.054688 8.9375 -7.546875 C 9.46875 -7.046875 9.988281 -6.546875 10.5 -6.046875 C 11.007812 -5.554688 11.488281 -5.066406 11.9375 -4.578125 C 12.382812 -4.085938 12.78125 -3.597656 13.125 -3.109375 C 13.226562 -4.648438 13.296875 -6.15625 13.328125 -7.625 C 13.367188 -9.101562 13.390625 -10.570312 13.390625 -12.03125 C 13.390625 -12.6875 13.367188 -13.195312 13.328125 -13.5625 C 13.296875 -13.9375 13.242188 -14.25 13.171875 -14.5 C 13.085938 -14.488281 12.992188 -14.484375 12.890625 -14.484375 C 12.796875 -14.484375 12.703125 -14.484375 12.609375 -14.484375 C 12.359375 -14.484375 12.113281 -14.476562 11.875 -14.46875 C 11.644531 -14.457031 11.457031 -14.414062 11.3125 -14.34375 C 11.570312 -14.53125 11.828125 -14.703125 12.078125 -14.859375 C 12.328125 -15.015625 12.578125 -15.144531 12.828125 -15.25 C 13.085938 -15.363281 13.347656 -15.453125 13.609375 -15.515625 C 13.867188 -15.578125 14.144531 -15.609375 14.4375 -15.609375 C 14.601562 -15.609375 14.785156 -15.601562 14.984375 -15.59375 C 15.191406 -15.582031 15.414062 -15.5625 15.65625 -15.53125 C 15.46875 -15.40625 15.285156 -15.296875 15.109375 -15.203125 C 14.941406 -15.109375 14.773438 -15.019531 14.609375 -14.9375 C 14.597656 -12.757812 14.535156 -10.617188 14.421875 -8.515625 C 14.316406 -6.410156 14.210938 -4.3125 14.109375 -2.21875 C 13.679688 -1.519531 13.375 -0.941406 13.1875 -0.484375 C 13 -0.0351562 12.890625 0.234375 12.859375 0.328125 L 12.859375 0.375 C 12.535156 -0.363281 12.132812 -1.050781 11.65625 -1.6875 C 11.175781 -2.332031 10.648438 -2.945312 10.078125 -3.53125 C 9.515625 -4.113281 8.925781 -4.679688 8.3125 -5.234375 C 7.707031 -5.796875 7.109375 -6.363281 6.515625 -6.9375 C 5.921875 -7.519531 5.359375 -8.125 4.828125 -8.75 C 4.296875 -9.382812 3.832031 -10.070312 3.4375 -10.8125 C 3.425781 -10.1875 3.414062 -9.5625 3.40625 -8.9375 C 3.394531 -8.320312 3.382812 -7.71875 3.375 -7.125 C 3.363281 -6.539062 3.347656 -5.976562 3.328125 -5.4375 C 3.304688 -4.894531 3.28125 -4.398438 3.25 -3.953125 C 3.226562 -3.503906 3.203125 -3.109375 3.171875 -2.765625 C 3.140625 -2.421875 3.113281 -2.15625 3.09375 -1.96875 Z M 1.484375 0.15625 C 1.472656 0.164062 1.453125 0.171875 1.421875 0.171875 L 1.421875 0.15625 Z M 1.484375 0.15625 "/></g></g></g><g fill="#004aad" fill-opacity="1"><g transform="translate(292.325742, 288.645713)"><g><path d="M 6.171875 -15.8125 C 5.835938 -15.59375 5.535156 -15.40625 5.265625 -15.25 C 5.003906 -15.101562 4.75 -14.976562 4.5 -14.875 C 4.46875 -13.59375 4.4375 -12.441406 4.40625 -11.421875 C 4.382812 -10.398438 4.363281 -9.492188 4.34375 -8.703125 C 4.332031 -7.921875 4.320312 -7.242188 4.3125 -6.671875 C 4.300781 -6.097656 4.289062 -5.609375 4.28125 -5.203125 C 4.257812 -4.253906 4.253906 -3.601562 4.265625 -3.25 C 4.253906 -2.988281 4.222656 -2.738281 4.171875 -2.5 C 4.128906 -2.289062 4.0625 -2.070312 3.96875 -1.84375 C 3.875 -1.613281 3.75 -1.414062 3.59375 -1.25 C 4.019531 -1.238281 4.414062 -1.234375 4.78125 -1.234375 C 5.15625 -1.234375 5.515625 -1.234375 5.859375 -1.234375 C 6.835938 -1.234375 7.644531 -1.242188 8.28125 -1.265625 C 8.914062 -1.296875 9.421875 -1.332031 9.796875 -1.375 C 10.171875 -1.414062 10.4375 -1.453125 10.59375 -1.484375 C 10.75 -1.515625 10.84375 -1.535156 10.875 -1.546875 C 10.5 -1.296875 10.1875 -1.078125 9.9375 -0.890625 C 9.6875 -0.703125 9.460938 -0.546875 9.265625 -0.421875 C 9.066406 -0.304688 8.875 -0.21875 8.6875 -0.15625 C 8.5 -0.101562 8.28125 -0.078125 8.03125 -0.078125 L 6.390625 -0.078125 C 5.921875 -0.078125 5.414062 -0.078125 4.875 -0.078125 C 4.332031 -0.078125 3.816406 -0.0703125 3.328125 -0.0625 C 2.835938 -0.0507812 2.398438 -0.03125 2.015625 0 C 1.628906 0.0195312 1.351562 0.046875 1.1875 0.078125 C 1.382812 -0.0859375 1.5625 -0.269531 1.71875 -0.46875 C 1.882812 -0.664062 2.023438 -0.910156 2.140625 -1.203125 C 2.265625 -1.492188 2.359375 -1.84375 2.421875 -2.25 C 2.484375 -2.664062 2.515625 -3.160156 2.515625 -3.734375 L 2.515625 -14.53125 C 2.296875 -14.507812 2.03125 -14.476562 1.71875 -14.4375 C 1.40625 -14.40625 1.050781 -14.359375 0.65625 -14.296875 C 1.039062 -14.609375 1.382812 -14.847656 1.6875 -15.015625 C 2 -15.179688 2.265625 -15.300781 2.484375 -15.375 C 2.742188 -15.46875 2.972656 -15.519531 3.171875 -15.53125 C 3.421875 -15.519531 3.695312 -15.519531 4 -15.53125 C 4.300781 -15.550781 4.59375 -15.570312 4.875 -15.59375 C 5.15625 -15.625 5.410156 -15.65625 5.640625 -15.6875 C 5.878906 -15.726562 6.054688 -15.769531 6.171875 -15.8125 Z M 10.875 -1.546875 L 10.875 -1.5625 C 10.882812 -1.5625 10.890625 -1.5625 10.890625 -1.5625 Z M 10.875 -1.546875 "/></g></g></g><g fill="#004aad" fill-opacity="1"><g transform="translate(304.354603, 288.645713)"><g><path d="M 13.828125 -15.8125 C 13.398438 -15.519531 13.019531 -15.285156 12.6875 -15.109375 C 12.363281 -14.941406 12.046875 -14.8125 11.734375 -14.71875 C 11.367188 -14.144531 10.96875 -13.597656 10.53125 -13.078125 C 10.101562 -12.566406 9.65625 -12.066406 9.1875 -11.578125 C 8.71875 -11.097656 8.242188 -10.625 7.765625 -10.15625 C 7.285156 -9.695312 6.816406 -9.242188 6.359375 -8.796875 C 6.660156 -8.367188 7.003906 -7.890625 7.390625 -7.359375 C 7.773438 -6.828125 8.1875 -6.296875 8.625 -5.765625 C 9.070312 -5.234375 9.539062 -4.710938 10.03125 -4.203125 C 10.53125 -3.691406 11.039062 -3.238281 11.5625 -2.84375 C 12.082031 -2.457031 12.609375 -2.144531 13.140625 -1.90625 C 13.679688 -1.664062 14.210938 -1.546875 14.734375 -1.546875 C 14.921875 -1.546875 15.117188 -1.566406 15.328125 -1.609375 C 15.535156 -1.648438 15.75 -1.726562 15.96875 -1.84375 C 15.539062 -1.375 15.164062 -1.007812 14.84375 -0.75 C 14.519531 -0.488281 14.25 -0.300781 14.03125 -0.1875 C 13.769531 -0.03125 13.546875 0.0546875 13.359375 0.078125 C 13.128906 0.109375 12.847656 0.0625 12.515625 -0.0625 C 12.191406 -0.195312 11.835938 -0.378906 11.453125 -0.609375 C 11.078125 -0.847656 10.679688 -1.125 10.265625 -1.4375 C 9.847656 -1.75 9.445312 -2.078125 9.0625 -2.421875 C 8.625 -2.828125 8.160156 -3.296875 7.671875 -3.828125 C 7.242188 -4.285156 6.765625 -4.835938 6.234375 -5.484375 C 5.710938 -6.140625 5.171875 -6.882812 4.609375 -7.71875 L 5.53125 -8.875 C 5.75 -9.050781 6.003906 -9.269531 6.296875 -9.53125 C 6.585938 -9.800781 6.890625 -10.09375 7.203125 -10.40625 C 7.523438 -10.726562 7.851562 -11.066406 8.1875 -11.421875 C 8.519531 -11.785156 8.832031 -12.144531 9.125 -12.5 C 9.414062 -12.863281 9.675781 -13.21875 9.90625 -13.5625 C 10.132812 -13.914062 10.3125 -14.242188 10.4375 -14.546875 C 10.226562 -14.523438 9.9375 -14.492188 9.5625 -14.453125 C 9.195312 -14.421875 8.78125 -14.367188 8.3125 -14.296875 C 8.695312 -14.609375 9.039062 -14.847656 9.34375 -15.015625 C 9.65625 -15.179688 9.921875 -15.300781 10.140625 -15.375 C 10.390625 -15.46875 10.617188 -15.519531 10.828125 -15.53125 C 11.078125 -15.519531 11.351562 -15.519531 11.65625 -15.53125 C 11.957031 -15.550781 12.25 -15.570312 12.53125 -15.59375 C 12.8125 -15.625 13.066406 -15.65625 13.296875 -15.6875 C 13.523438 -15.726562 13.703125 -15.769531 13.828125 -15.8125 Z M 6.453125 -1.375 C 6.066406 -1.125 5.75 -0.90625 5.5 -0.71875 C 5.25 -0.53125 5.019531 -0.375 4.8125 -0.25 C 4.613281 -0.132812 4.421875 -0.0507812 4.234375 0 C 4.046875 0.0507812 3.820312 0.078125 3.5625 0.078125 C 3.226562 0.078125 2.9375 0.0625 2.6875 0.03125 C 2.445312 0.0078125 2.207031 0 1.96875 0 C 1.84375 0 1.71875 0.00390625 1.59375 0.015625 C 1.46875 0.0234375 1.332031 0.046875 1.1875 0.078125 C 1.382812 -0.0859375 1.5625 -0.269531 1.71875 -0.46875 C 1.882812 -0.664062 2.023438 -0.910156 2.140625 -1.203125 C 2.265625 -1.492188 2.359375 -1.84375 2.421875 -2.25 C 2.484375 -2.664062 2.515625 -3.160156 2.515625 -3.734375 L 2.515625 -14.53125 C 2.296875 -14.507812 2.03125 -14.476562 1.71875 -14.4375 C 1.40625 -14.40625 1.050781 -14.359375 0.65625 -14.296875 C 1.039062 -14.609375 1.382812 -14.847656 1.6875 -15.015625 C 2 -15.179688 2.265625 -15.300781 2.484375 -15.375 C 2.742188 -15.46875 2.972656 -15.519531 3.171875 -15.53125 C 3.421875 -15.519531 3.695312 -15.519531 4 -15.53125 C 4.300781 -15.550781 4.59375 -15.570312 4.875 -15.59375 C 5.15625 -15.625 5.410156 -15.65625 5.640625 -15.6875 C 5.878906 -15.726562 6.054688 -15.769531 6.171875 -15.8125 C 5.835938 -15.59375 5.535156 -15.40625 5.265625 -15.25 C 5.003906 -15.101562 4.75 -14.976562 4.5 -14.875 C 4.46875 -13.59375 4.4375 -12.441406 4.40625 -11.421875 C 4.382812 -10.398438 4.363281 -9.492188 4.34375 -8.703125 C 4.332031 -7.921875 4.320312 -7.242188 4.3125 -6.671875 C 4.300781 -6.097656 4.289062 -5.609375 4.28125 -5.203125 C 4.257812 -4.253906 4.253906 -3.601562 4.265625 -3.25 C 4.253906 -2.988281 4.21875 -2.734375 4.15625 -2.484375 C 4.09375 -2.253906 4.003906 -2.007812 3.890625 -1.75 C 3.785156 -1.5 3.625 -1.269531 3.40625 -1.0625 C 3.539062 -1.050781 3.671875 -1.046875 3.796875 -1.046875 C 3.929688 -1.046875 4.054688 -1.046875 4.171875 -1.046875 C 4.535156 -1.046875 4.859375 -1.0625 5.140625 -1.09375 C 5.421875 -1.125 5.660156 -1.160156 5.859375 -1.203125 C 6.078125 -1.253906 6.273438 -1.3125 6.453125 -1.375 Z M 6.453125 -1.375 "/></g></g></g></svg>